Motion_pl02
version=1
nRows=10
nColumns=43
inDegrees=yes
endheader
time	pelvis_tilt	pelvis_list	pelvis_rotation	pelvis_tx	pelvis_ty	pelvis_tz	hip_flexion_r	hip_adduction_r	hip_rotation_r	knee_angle_r	ankle_angle_r	subtalar_angle_r	mtp_angle_r	hip_flexion_l	hip_adduction_l	hip_rotation_l	knee_angle_l	ankle_angle_l	subtalar_angle_l	mtp_angle_l	lumbar_extension	lumbar_bending	lumbar_rotation	neck_flexion	neck_lateral_bending	neck_rotation	arm_flex_r	arm_add_r	arm_rot_r	elbow_flex_r	pro_sup_r	wrist_flex_r	wrist_dev_r	hand_finger_flex_r	arm_flex_l	arm_add_l	arm_rot_l	elbow_flex_l	pro_sup_l	wrist_flex_l	wrist_dev_l	hand_finger_flex_l
      5.02750000	     -2.71047400	    -19.93320535	     87.31598322	     -0.01158426	      0.56733353	      0.40548238	     90.40220481	     -5.74035578	      1.39236606	   -111.00534382	      4.29686135	     15.96420591	     31.34007322	     87.21264900	    -13.87823037	     -1.55448822	   -109.29984914	     18.49538601	     15.87022218	     29.70018171	    -35.79078520	     -5.76718556	     -1.34544478	      2.64874235	      6.61328229	     -0.34380844	    127.28058547	    -23.10536600	     44.57165430	     27.08752398	    120.86388405	     14.56829505	    -11.26012664	    -54.49348855	    138.47139487	    -20.82951140	     67.50024268	     30.00877497	    116.20100619	      1.30106723	     -4.52253148	    -26.55089345
      5.03000000	     -2.70480529	    -19.94893470	     87.31520921	     -0.01159800	      0.56727341	      0.40535762	     90.40191178	     -5.74413113	      1.38878911	   -111.01670098	      4.29943885	     15.96297607	     31.34013663	     87.20461376	    -13.87510405	     -1.55652274	   -109.29883006	     18.49730420	     15.87074784	     29.70072245	    -35.80283130	     -5.77060617	     -1.34288316	      2.64860036	      6.61577780	     -0.34471198	    127.27476082	    -23.10185084	     44.57138702	     27.09001978	    120.86364754	     14.56912128	    -11.26096536	    -54.49305489	    138.45816197	    -20.83249531	     67.50132705	     30.00937353	    116.20071785	      1.30321333	     -4.52337031	    -26.55020463
      5.03250000	     -2.70570104	    -19.94982614	     87.31611299	     -0.01167240	      0.56726967	      0.40533733	     90.40270357	     -5.74373726	      1.38700211	   -111.01779294	      4.29972196	     15.96264989	     31.34014445	     87.20351867	    -13.87477271	     -1.55672738	   -109.29872483	     18.49756485	     15.87080370	     29.70079044	    -35.80426954	     -5.77120605	     -1.34245482	      2.64859967	      6.61609448	     -0.34481980	    127.27398433	    -23.10135701	     44.57136495	     27.09034405	    120.86361823	     14.56922978	    -11.26106918	    -54.49300092	    138.45641231	    -20.83291243	     67.50149622	     30.00944600	    116.20068854	      1.30349463	     -4.52347889	    -26.55011556
      5.03500000	     -2.69429775	    -19.78356137	     87.51678799	     -0.01211737	      0.56768673	      0.40464457	     90.20490640	     -6.02615502	      1.39309833	   -111.08126567	      5.01418846	     15.98976452	     31.35726766	     86.77515564	    -13.66213390	     -1.66584863	   -109.18450032	     19.28622528	     15.92922655	     29.86327386	    -35.87424768	     -5.67044497	     -1.41780065	      2.15675741	      7.02298145	     -0.55047768	    126.84998681	    -23.25887264	     44.10773002	     27.44054940	    120.80965147	     14.60747339	    -11.30038313	    -54.42084931	    137.90990631	    -21.08789705	     66.91409045	     30.63610382	    116.04653576	      1.41079538	     -4.73574642	    -26.50859344
      5.03750000	     -2.69511987	    -19.78678115	     87.51733609	     -0.01215444	      0.56766111	      0.40460238	     90.20520488	     -6.02553268	      1.39236383	   -111.08266821	      5.01394844	     15.98979596	     31.35727733	     86.77550104	    -13.66188869	     -1.66586106	   -109.18416632	     19.28630176	     15.92929802	     29.86333709	    -35.87800804	     -5.67089884	     -1.41716016	      2.15673205	      7.02304161	     -0.55043943	    126.84901888	    -23.25863401	     44.10770586	     27.44049799	    120.80970789	     14.60759382	    -11.30031060	    -54.42076659	    137.90887337	    -21.08870648	     66.91402489	     30.63535667	    116.04659726	      1.41099380	     -4.73547186	    -26.50853686
      5.04000000	     -2.69538301	    -19.79804146	     87.51923093	     -0.01215676	      0.56770707	      0.40452885	     90.21086670	     -6.02398957	      1.38954583	   -111.09091775	      5.01214310	     15.98993397	     31.35732797	     86.77743502	    -13.66041274	     -1.66657280	   -109.18285523	     19.28672087	     15.92971347	     29.86367896	    -35.89666937	     -5.67342710	     -1.41425393	      2.15673024	      7.02343012	     -0.55022696	    126.84428675	    -23.25719433	     44.10750798	     27.44056847	    120.80998614	     14.60819822	    -11.29996544	    -54.42034783	    137.90207703	    -21.09269189	     66.91408540	     30.63177305	    116.04696598	      1.41219656	     -4.73419199	    -26.50820018
      5.04250000	     -2.69548338	    -19.79983673	     87.51981984	     -0.01215527	      0.56764343	      0.40450918	     90.21209655	     -6.02372088	      1.38886736	   -111.09149150	      5.01182738	     15.98995840	     31.35733688	     86.77781717	    -13.66017727	     -1.66677647	   -109.18262038	     19.28678589	     15.92979077	     29.86373987	    -35.90049220	     -5.67410007	     -1.41377405	      2.15672420	      7.02349290	     -0.55018411	    126.84342212	    -23.25681936	     44.10748704	     27.44064477	    120.81003437	     14.60831080	    -11.29991602	    -54.42027156	    137.90053270	    -21.09334464	     66.91418996	     30.63117934	    116.04704214	      1.41244799	     -4.73399337	    -26.50813101
      5.04500000	     -2.69484270	    -19.80789667	     87.52399271	     -0.01210655	      0.56765630	      0.40449892	     90.22547179	     -6.02172253	      1.38254593	   -111.10226037	      5.00870896	     15.98961590	     31.35740610	     86.78201266	    -13.65886126	     -1.66868302	   -109.18128631	     19.28733720	     15.93037437	     29.86421960	    -35.92785403	     -5.67929207	     -1.41069635	      2.15685548	      7.02398161	     -0.54980585	    126.83733211	    -23.25370055	     44.10723437	     27.44171566	    120.81036785	     14.60914223	    -11.29962990	    -54.41969707	    137.88766734	    -21.09785909	     66.91531503	     30.62715838	    116.04766961	      1.41450369	     -4.73270067	    -26.50756904
      5.04750000	     -2.69527006	    -19.80743616	     87.52463399	     -0.01212586	      0.56764029	      0.40446394	     90.22658649	     -6.02134358	      1.38184827	   -111.10226245	      5.00852448	     15.98956437	     31.35740966	     86.78230796	    -13.65885522	     -1.66876502	   -109.18118470	     19.28736610	     15.93040074	     29.86424416	    -35.92903774	     -5.67966519	     -1.41055697	      2.15686948	      7.02399700	     -0.54978271	    126.83711592	    -23.25349837	     44.10720441	     27.44182066	    120.81038048	     14.60917540	    -11.29962428	    -54.41966938	    137.88704737	    -21.09805767	     66.91536258	     30.62698472	    116.04770157	      1.41460379	     -4.73264544	    -26.50754185
      5.05000000	     -2.70029342	    -19.79438454	     87.53464997	     -0.01195831	      0.56757083	      0.40462221	     90.25677889	     -6.01623370	      1.36278698	   -111.12713552	      5.00056035	     15.98827201	     31.35759561	     86.79758381	    -13.66008403	     -1.67284595	   -109.17823892	     19.28876060	     15.93167537	     29.86553721	    -35.96885668	     -5.68980454	     -1.40877765	      2.15850103	      7.02481860	     -0.54848149	    126.82969893	    -23.24578537	     44.10456840	     27.44783892	    120.81085698	     14.61049030	    -11.29943442	    -54.41838127	    137.85836694	    -21.10428409	     66.91716757	     30.62139938	    116.04926039	      1.41936458	     -4.73074037	    -26.50624603
